<?xml version="1.0" encoding="utf-8"?>
<!-- Generator: Adobe Illustrator 25.2.3, SVG Export Plug-In . SVG Version: 6.00 Build 0)  -->
<svg version="1.1" id="Layer_1" xmlns="http://www.w3.org/2000/svg" xmlns:xlink="http://www.w3.org/1999/xlink" x="0px" y="0px"
	 viewBox="0 0 142.8 142.8" style="enable-background:new 0 0 142.8 142.8;" xml:space="preserve">
<style type="text/css">
	.st0{fill:#48FFE4;}
</style>
<g id="Layer_2_1_">
	<g id="Layer_1-2">
		<g>
			<path class="st0" d="M99.9,100.7H47.5c-1.5,0-2.8,1.2-2.8,2.8s1.2,2.8,2.8,2.8l0,0h52.3c1.5,0,2.8-1.2,2.8-2.8
				S101.4,100.7,99.9,100.7z"/>
			<path class="st0" d="M99.9,36.5H46.6c-2,0-3.7,1.7-3.7,3.7v3.9c-2.1,0.4-3.7,2.3-3.7,4.4v9.2c0,2.2,1.6,4,3.7,4.4v9.4
				c-2.1,0.4-3.7,2.3-3.7,4.4v7.4c0,2.2,1.5,4,3.7,4.4V92c0,2,1.6,3.7,3.7,3.7h53.3c2,0,3.7-1.7,3.7-3.7V40.2
				C103.5,38.2,101.9,36.5,99.9,36.5z M58,66.5v9.8c0,1.2-1,2.2-2.2,2.2c-1.2-0.1-2.1-1-2.2-2.2v-9.8c-2-0.9-3.2-2.8-3.3-5
				c0-3,2.4-5.5,5.5-5.6c3,0,5.5,2.4,5.6,5.5C61.3,63.6,60,65.6,58,66.5L58,66.5z M95.3,68.3h-2.9c-0.2,1.1-0.7,2.1-1.3,3l2.2,2.2
				c0.9,0.9,0.9,2.4,0,3.3c-0.5,0.4-1,0.7-1.7,0.7c-0.6,0-1.2-0.3-1.7-0.7l-2.2-2.2c-0.9,0.5-1.9,0.9-2.9,1.3v3.1
				c0,1.2-1,2.2-2.2,2.2c-1.2,0-2.2-1-2.2-2.2v-3c-1.1-0.2-2.1-0.7-2.9-1.3L75.3,77c-0.5,0.4-1,0.7-1.7,0.7c-0.6,0-1.2-0.3-1.7-0.7
				c-0.9-0.9-0.9-2.4,0-3.3l2.2-2.2c-0.5-1-0.9-1.9-1.3-3h-2.9c-1.3,0-2.3-1-2.4-2.2c0-1.3,1.1-2.3,2.3-2.2c0,0,0,0,0,0h2.9
				c0.2-1.1,0.7-2.1,1.3-3l-2.2-2.2c-0.9-0.9-0.9-2.4,0-3.3c0.9-0.9,2.4-0.9,3.3,0c0,0,0,0,0,0l2.2,2.2c0.9-0.5,1.9-0.9,2.9-1.3
				v-3.3c0-1.2,1-2.2,2.2-2.2c1.2,0,2.2,1,2.2,2.2l0,0v3c1.1,0.2,2.1,0.7,2.9,1.3l2.2-2.2c0.9-0.9,2.4-0.9,3.3,0c0,0,0,0,0,0
				c0.9,0.9,0.9,2.4,0,3.3L91,60.8c0.5,1,0.9,1.9,1.3,3h2.9c1.2,0,2.2,1,2.2,2.2c0.1,1.2-0.8,2.3-2,2.4
				C95.4,68.3,95.3,68.3,95.3,68.3L95.3,68.3z M82.4,61.5c-2.6,0-4.6,2-4.7,4.6c0,2.6,2,4.6,4.6,4.7c2.6,0,4.6-2,4.7-4.6
				c0,0,0,0,0,0C87,63.6,85,61.5,82.4,61.5C82.5,61.5,82.4,61.5,82.4,61.5L82.4,61.5z"/>
		</g>
	</g>
</g>
<g>
	<path class="st0" d="M71.4,142.8C32,142.8,0,110.8,0,71.4C0,32,32,0,71.4,0c39.4,0,71.4,32,71.4,71.4
		C142.8,110.8,110.8,142.8,71.4,142.8z M71.4,9.4c-34.2,0-62,27.8-62,62c0,34.2,27.8,62,62,62c34.2,0,62-27.8,62-62
		C133.4,37.2,105.6,9.4,71.4,9.4z"/>
</g>
</svg>
