<?xml version="1.0" encoding="utf-8"?>
<!-- Generator: Adobe Illustrator 25.2.3, SVG Export Plug-In . SVG Version: 6.00 Build 0)  -->
<svg version="1.1" id="Layer_1" xmlns="http://www.w3.org/2000/svg" xmlns:xlink="http://www.w3.org/1999/xlink" x="0px" y="0px"
	 viewBox="0 0 142.8 142.8" style="enable-background:new 0 0 142.8 142.8;" xml:space="preserve">
<style type="text/css">
	.st0{fill:#48FFE4;}
</style>
<g id="Layer_2_1_">
	<g id="Layer_1-2">
		<g>
			<path class="st0" d="M107.4,77.6c-1.7-2.3-4.9-2.7-7.2-1c-0.1,0.1-0.1,0.1-0.2,0.2L85,88.4c-0.7,0.6-1.6,0.9-2.5,0.8H71.8
				c-1.5,0.1-2.7-1.1-2.8-2.5c-0.1-1.5,1.1-2.7,2.5-2.8l0,0h8.9c2.9,0,5.3-2.4,5.3-5.3c0-2.9-2.4-5.3-5.3-5.3H58.5
				c-2.7,0.2-5.3,1.2-7.4,3L43.7,82c-0.5,0.3-0.6,1-0.2,1.5c0,0,0,0,0,0l14.1,18c0.2,0.3,0.5,0.4,0.8,0.4l17.3,0.2h4.9
				c2.9,0.1,5.8-0.9,8-2.8L106.8,85C109,83.1,109.2,79.8,107.4,77.6L107.4,77.6z"/>
			<path class="st0" d="M39.5,86.7c-0.4-0.4-1.1-0.6-1.5-0.2L34.6,89c-0.5,0.3-0.6,1-0.2,1.5c0,0,0,0,0,0l13.9,17.6
				c0.4,0.4,1.1,0.6,1.5,0.2l3.4-2.3c0.5-0.3,0.6-1,0.2-1.5c0,0,0,0,0,0L39.5,86.7z M80,29.6c-10.2,0-18.5,8.2-18.6,18.5
				c0,0.1,0,0.1,0,0.2C61.4,58.5,69.6,66.9,79.9,67s18.6-8.2,18.7-18.4c0-0.1,0-0.2,0-0.3C98.6,38,90.3,29.7,80,29.6z M78.9,44.7
				l4.2,2.1c2.6,1.3,4,4.2,3.4,7c-0.3,2.2-1.7,4.1-3.8,4.9v0.6c0,1.4-1.1,2.6-2.5,2.6c-1.4,0-2.6-1.1-2.6-2.5c0,0,0-0.1,0-0.1v-0.4
				c-2.1-0.6-3.8-2.2-4.6-4.2c-0.6-1.2-0.1-2.7,1.1-3.3c0,0,0.1,0,0.1-0.1c1.2-0.6,2.7-0.1,3.3,1.1c0,0,0,0.1,0.1,0.1
				c0.4,1,1.4,1.7,2.5,1.5c0.8-0.2,1.1-0.6,1.1-1.1c0-0.2,0-1.1-0.6-1.3l-4.2-2.1c-2.6-1.3-4-4.2-3.4-7c0.4-2.5,2.2-4.4,4.6-5.1
				v-0.6c0-1.4,1.1-2.6,2.5-2.6c1.4,0,2.6,1.1,2.6,2.5c0,0,0,0.1,0,0.1v1.1c1.7,0.8,3,2.2,3.8,3.8c0.6,1.2,0.1,2.7-1.1,3.3
				c0,0-0.1,0-0.1,0.1c-1.2,0.6-2.7,0.1-3.3-1.1c0,0,0-0.1-0.1-0.1c-0.4-1-1.4-1.7-2.5-1.5c-0.5,0-1,0.4-1.1,0.9c0,0,0,0.1,0,0.1
				C78.2,43.9,78.4,44.5,78.9,44.7L78.9,44.7z"/>
		</g>
	</g>
</g>
<g>
	<path class="st0" d="M71.4,142.8C32,142.8,0,110.8,0,71.4C0,32,32,0,71.4,0c39.4,0,71.4,32,71.4,71.4
		C142.8,110.8,110.8,142.8,71.4,142.8z M71.4,9.4c-34.2,0-62,27.8-62,62c0,34.2,27.8,62,62,62c34.2,0,62-27.8,62-62
		C133.4,37.2,105.6,9.4,71.4,9.4z"/>
</g>
</svg>
