<?xml version="1.0" encoding="utf-8"?>
<!-- Generator: Adobe Illustrator 25.2.3, SVG Export Plug-In . SVG Version: 6.00 Build 0)  -->
<svg version="1.1" id="Layer_1" xmlns="http://www.w3.org/2000/svg" xmlns:xlink="http://www.w3.org/1999/xlink" x="0px" y="0px"
	 viewBox="0 0 142.8 141.9" style="enable-background:new 0 0 142.8 141.9;" xml:space="preserve">
<style type="text/css">
	.st0{fill:#48FFE4;}
</style>
<g id="Layer_2_1_">
	<g id="Layer_1-2">
		<path class="st0" d="M65.6,95h14V66c0.1-1.2-0.8-2.3-2.1-2.3c-0.1,0-0.2,0-0.3,0h-9.3c-1.2-0.1-2.3,0.8-2.3,2.1c0,0.1,0,0.2,0,0.3
			V95z M45.8,95h14V83.4c0.1-1.2-0.8-2.3-2.1-2.3c-0.1,0-0.2,0-0.3,0h-9.3c-1.2-0.1-2.3,0.8-2.3,2.1c0,0.1,0,0.2,0,0.3
			C45.8,83.4,45.8,95,45.8,95z M85.3,95h14V57.4c0.1-1.2-0.8-2.3-2.1-2.3c-0.1,0-0.2,0-0.3,0h-9.3c-1.2-0.1-2.3,0.8-2.3,2.1
			c0,0.1,0,0.2,0,0.3V95z M33,104.5c0,1.9,1.6,3.4,3.5,3.5h69.8c1.9,0,3.5-1.6,3.5-3.5c0-1.9-1.6-3.5-3.5-3.5c0,0,0,0,0,0H36.5
			C34.6,101.1,33.1,102.6,33,104.5z"/>
		<path class="st0" d="M102.3,41.1c-0.2,1.1-1.3,1.9-2.4,1.7c-0.4-0.1-0.8-0.3-1.1-0.5L97,40.4l-10.5,8.8c-1.2,1.2-3.2,1.2-4.4,0
			L67.9,37.2l-20,14.4c-1.6,1.1-3.7,0.8-4.9-0.7c-1.2-1.5-0.9-3.6,0.5-4.8c0,0,0.1-0.1,0.1-0.1l22.1-16.3c0.6-0.4,1.3-0.7,2.1-0.7
			c0.9,0,1.7,0.3,2.3,0.9l14,12.1l7.9-6.5L90,33.4c-0.8-0.8-0.8-2.2,0.1-2.9c0.3-0.3,0.7-0.5,1.1-0.5l10.2-1.6
			c1.1-0.2,2.1,0.5,2.3,1.6c0,0.2,0,0.5,0,0.7L102.3,41.1z"/>
	</g>
</g>
<g>
	<path class="st0" d="M71.4,141.9C32,141.9,0,109.8,0,70.5C0,31.1,32-0.9,71.4-0.9c39.4,0,71.4,32,71.4,71.4
		C142.8,109.8,110.8,141.9,71.4,141.9z M71.4,8.5c-34.2,0-62,27.8-62,62c0,34.2,27.8,62,62,62c34.2,0,62-27.8,62-62
		C133.4,36.3,105.6,8.5,71.4,8.5z"/>
</g>
</svg>
