<?xml version="1.0" encoding="utf-8"?>
<!-- Generator: Adobe Illustrator 25.2.3, SVG Export Plug-In . SVG Version: 6.00 Build 0)  -->
<svg version="1.1" id="Layer_1" xmlns="http://www.w3.org/2000/svg" xmlns:xlink="http://www.w3.org/1999/xlink" x="0px" y="0px"
	 viewBox="0 0 142.8 142.8" style="enable-background:new 0 0 142.8 142.8;" xml:space="preserve">
<style type="text/css">
	.st0{fill:#48FFE4;}
</style>
<g id="Layer_2_1_">
	<g id="Layer_1-2">
		<g>
			<path class="st0" d="M98.4,96.5c-0.6,3.9-2.7,7.3-5.9,9.6c-8.3,6.6-20.6,7.7-31.1,4.1c-6.2-2.1-11.6-6-15.5-11.2
				c-2.2-3.2-3.4-7-3.5-11c-0.6-4.7,0.3-9.5,2.7-13.7c1.2-2.7,2.6-5.3,4.3-7.7c13.7-17,7-25.2,7-25.2c2.5,1.5,4.6,3.6,6.2,6
				c1.3,1.9,2.4,1.6,3.5,0l0.3-0.5c2.9-5.5,4-11.5,5.4-17.3c0.3-1.2,0.6-2.4,0.8-3.6c3.5,3,5.6,6.6,7.8,10.1c1.1,1.8,2,3.7,2.7,5.8
				c0.2,0.5,0.4,1.1,0.5,1.6v0.3c0,0.3,0.3,0.5,0.3,1.1c0.3,1.3,0.5,2.7,0.5,4.1c0,8.5-6.4,13.7-6.4,13.7
				c-3.5,3.8-7.8,7.1-10.7,11.8c-1.2,1.9-2.3,3.9-3.2,6c-2.2,5.2-1.3,11.2,2.1,15.6c4.8,6,13.4,8.2,22.5,5.5
				C91.7,100.1,94.9,98.4,98.4,96.5L98.4,96.5z"/>
			<path class="st0" d="M97.6,88.8c0,0.3-0.3,0.3-0.3,0.5c-0.1,0.1-0.2,0.3-0.3,0.5l0,0c-4.3,7.1-15.8,10.4-23,5.8
				c-0.5-0.3-1.1-0.8-1.6-1.1l-0.3-0.3c-1.6-1.5-2.9-3.4-3.8-5.5c-2.1-6,0.8-11,2.9-13.7c0.6-0.7,1.2-1.3,1.9-1.9
				c3.8-2.9,7.2-6.3,10.2-10.1c3.5-4.4,6.2-10.1,5.9-15.9c3.8,3.9,6.5,8.7,7.8,14C100.3,69.4,102.4,79.5,97.6,88.8z"/>
			<path class="st0" d="M89.3,47.5c0.3,5.8-2.4,11.2-5.9,15.9L89.3,47.5z"/>
		</g>
	</g>
</g>
<g>
	<path class="st0" d="M71.4,142.8C32,142.8,0,110.8,0,71.4C0,32,32,0,71.4,0c39.4,0,71.4,32,71.4,71.4
		C142.8,110.8,110.8,142.8,71.4,142.8z M71.4,9.4c-34.2,0-62,27.8-62,62c0,34.2,27.8,62,62,62c34.2,0,62-27.8,62-62
		C133.4,37.2,105.6,9.4,71.4,9.4z"/>
</g>
</svg>
